<svg version="1.2" xmlns="http://www.w3.org/2000/svg" viewBox="0 0 1500 500" width="1500" height="500"><style>.a{fill:#000a1a;stroke:#ffb703;stroke-linejoin:round;stroke-width:16}.b{fill:#ffb703}</style><path class="a" d="m38 20v347l178.4 113.8 178.4-113.8v-347z"/><path class="b" d="m282.1 340l-15.2-45.8h-101.7l-14.8 45.8h-62.9l93.2-271.9h71.1l92.8 271.9zm-99-100.2h66l-33-101z"/><path class="b" d="m503 199.2q12.1 0 22.5 4.6 10.5 4.5 18.3 12.6 8 7.8 12.5 18.2 4.6 10.5 4.6 22.5v83.9h-40.2v-76.1q0-5.9-2.4-11.3-2.4-5.3-6.4-9.3-4.1-4.1-9.4-6.2-5.4-2.4-11.3-2.4-6.1 0-11.5 2.4-5.4 2.4-9.4 6.4-4 4-6.4 9.4-2.4 5.4-2.4 11.5v75.6h-40.2v-136.4h40.2v15.5q8.3-9.3 18.5-15 10.4-5.9 23-5.9zm176.4 105.1l8.5 37q-5.9 2.1-15.8 3.7-9.6 1.4-27.3 1.4-8.9 0-16.6-3.3-7.5-3.4-13.2-9.1-5.6-5.9-9.1-13.4-3.2-7.7-3.2-16.6l-0.3-64.6h-27.8v-34.8h27.8v-43.4h40.2v43.4h33.3l-7.8 34.8h-25.5v56.3q0.3 5.9 4.3 10.2 4.3 4 10.5 4 10.4 0 15-2.1 4.8-2.4 7-3.5zm127.3-99.7h40.2v136.4h-40.2v-10.7q-8.6 7.2-18.8 11.8-10.2 4.3-21.4 4.3-15.3 0-29-5.7-13.4-5.9-23.3-15.8-9.9-10.2-15.8-23.6-5.6-13.4-5.6-28.4 0-15.2 5.9-28.6 5.9-13.7 15.8-23.6 10.2-9.9 23.6-15.6 13.4-5.9 28.4-5.9 11.2 0 21.4 4.6 10.2 4.3 18.8 11.2zm-36 105.6q7.6 0 14.3-2.9 6.9-3 12-7.8 5.1-5.1 8.1-11.8 2.9-6.9 2.9-14.7 0-7.8-2.9-14.5-3-7-8.1-11.8-5.1-5.1-12-8-6.7-3-14.3-3-7.7 0-14.7 3-6.7 2.9-11.8 8-4.8 4.8-7.8 11.8-2.9 6.7-2.9 14.5 0 7.8 2.9 14.7 3 6.7 7.8 11.8 5.1 4.8 11.8 7.8 7 2.9 14.7 2.9zm247.4 30.9h-52.5l-48.8-48v48h-40.2v-187.6h40.2v98.6l45-47.5h49.6l-64 67.3zm110.6-136.4h40.2v136.4h-40.2v-10.7q-8.5 7.2-18.7 11.8-10.2 4.3-21.5 4.3-15.2 0-28.9-5.7-13.4-5.9-23.3-15.8-9.9-10.2-15.8-23.6-5.7-13.4-5.7-28.4 0-15.2 5.9-28.6 5.9-13.7 15.9-23.6 10.1-9.9 23.5-15.6 13.4-5.9 28.4-5.9 11.3 0 21.5 4.6 10.2 4.3 18.7 11.2zm-35.9 105.6q7.5 0 14.2-2.9 7-3 12.1-7.8 5.1-5.1 8-11.8 3-6.9 3-14.7 0-7.8-3-14.5-2.9-7-8-11.8-5.1-5.1-12.1-8-6.7-3-14.2-3-7.7 0-14.7 3-6.7 2.9-11.8 8-4.8 4.8-7.8 11.8-2.9 6.7-2.9 14.5 0 7.8 2.9 14.7 3 6.7 7.8 11.8 5.1 4.8 11.8 7.8 7 2.9 14.7 2.9zm186.3-110.9q6.4 0 12.6 1.1 6.4 0.8 12 2.9l-8.3 36.5q-0.5-1.7-5.3-2.7-4.8-1.4-9.7-1.4-9.6 0-17.1 2.2-7.5 2.1-12.9 5.3-5.1 3-8 6.7-2.7 3.5-2.7 6.7v84.5h-40.2v-136.5h40.2v21.2q1.1-4 5.4-8.6 4.5-4.8 10.1-8.5 5.9-4.1 12.1-6.7 6.4-2.7 11.8-2.7zm141.5 5.3h40.2v136.5h-40.2v-10.8q-8.6 7.3-18.8 11.8-10.1 4.3-21.4 4.3-15.3 0-28.9-5.6-13.4-5.9-23.4-15.8-9.9-10.2-15.8-23.6-5.6-13.4-5.6-28.4 0-15.3 5.9-28.7 5.9-13.7 15.8-23.6 10.2-9.9 23.6-15.5 13.4-5.9 28.4-5.9 11.3 0 21.4 4.5 10.2 4.3 18.8 11.3zm-35.9 105.6q7.5 0 14.2-3 7-2.9 12-7.7 5.1-5.1 8.1-11.8 2.9-7 2.9-14.8 0-7.7-2.9-14.4-3-7-8.1-11.8-5-5.1-12-8.1-6.7-2.9-14.2-2.9-7.8 0-14.8 2.9-6.7 3-11.7 8.1-4.9 4.8-7.8 11.8-3 6.7-3 14.4 0 7.8 3 14.8 2.9 6.7 7.8 11.8 5 4.8 11.7 7.7 7 3 14.8 3z"/><path class="b" d="m411 163.1v-17.7l1049.4-0.9v17.7z"/></svg>